<?xml version="1.0" encoding="UTF-8"?>
<svg id="Capa_2" data-name="Capa 2" xmlns="http://www.w3.org/2000/svg" xmlns:xlink="http://www.w3.org/1999/xlink" viewBox="0 0 111.83 108.92">
  <defs>
    <style>
      .cls-1 {
        fill: url(#Degradado_sin_nombre-11);
      }

      .cls-2 {
        fill: url(#Degradado_sin_nombre-10);
      }

      .cls-3 {
        fill: url(#Degradado_sin_nombre-2);
      }

      .cls-4 {
        fill: url(#Degradado_sin_nombre-8);
      }

      .cls-5 {
        fill: url(#Degradado_sin_nombre-4);
      }

      .cls-6 {
        fill: url(#Degradado_sin_nombre-7);
      }

      .cls-7 {
        fill: url(#Degradado_sin_nombre-9);
      }

      .cls-8 {
        fill: url(#Degradado_sin_nombre-3);
      }

      .cls-9 {
        fill: url(#Degradado_sin_nombre-6);
      }

      .cls-10 {
        fill: url(#Degradado_sin_nombre);
      }

      .cls-11 {
        fill: url(#Degradado_sin_nombre-5);
      }
    </style>
    <linearGradient id="Degradado_sin_nombre" data-name="Degradado sin nombre" x1="10.99" y1="-1947.34" x2="111.83" y2="-1947.34" gradientTransform="translate(0 -1888.88) scale(1 -1)" gradientUnits="userSpaceOnUse">
      <stop offset="0" stop-color="#fef275"/>
      <stop offset="1" stop-color="#bda32b"/>
    </linearGradient>
    <linearGradient id="Degradado_sin_nombre-2" data-name="Degradado sin nombre" x1="54.56" y1="-1926.15" x2="74.16" y2="-1926.15" xlink:href="#Degradado_sin_nombre"/>
    <linearGradient id="Degradado_sin_nombre-3" data-name="Degradado sin nombre" x1="20.81" y1="-1950.21" x2="59.35" y2="-1950.21" xlink:href="#Degradado_sin_nombre"/>
    <linearGradient id="Degradado_sin_nombre-4" data-name="Degradado sin nombre" x1="23.88" y1="-1975.5" x2="34.21" y2="-1975.5" xlink:href="#Degradado_sin_nombre"/>
    <linearGradient id="Degradado_sin_nombre-5" data-name="Degradado sin nombre" x1="83.88" y1="-1915.06" x2="95.1" y2="-1915.06" xlink:href="#Degradado_sin_nombre"/>
    <linearGradient id="Degradado_sin_nombre-6" data-name="Degradado sin nombre" x1="81.57" y1="-1973.27" x2="92.79" y2="-1973.27" xlink:href="#Degradado_sin_nombre"/>
    <linearGradient id="Degradado_sin_nombre-7" data-name="Degradado sin nombre" x1="92.79" y1="-1984.68" x2="104" y2="-1984.68" xlink:href="#Degradado_sin_nombre"/>
    <linearGradient id="Degradado_sin_nombre-8" data-name="Degradado sin nombre" x1="75.39" y1="-1955.78" x2="98.98" y2="-1955.78" xlink:href="#Degradado_sin_nombre"/>
    <linearGradient id="Degradado_sin_nombre-9" data-name="Degradado sin nombre" x1="65.89" y1="-1973.27" x2="73.48" y2="-1973.27" xlink:href="#Degradado_sin_nombre"/>
    <linearGradient id="Degradado_sin_nombre-10" data-name="Degradado sin nombre" x1="59.17" y1="-1960.03" x2="59.41" y2="-1960.03" xlink:href="#Degradado_sin_nombre"/>
    <linearGradient id="Degradado_sin_nombre-11" data-name="Degradado sin nombre" x1="0" y1="-1943.33" x2="110.82" y2="-1943.33" xlink:href="#Degradado_sin_nombre"/>
  </defs>
  <g id="Capa_1-2" data-name="Capa 1">
    <g>
      <g>
        <path class="cls-10" d="M58.66,55.54c.58.29,1.16.57,1.74.87,4.89,2.48,9.97,4.43,15.37,5.52,2.87.58,5.68.49,8.51-.23,7.67-1.95,13.53-6.35,17.83-12.93,3.36-5.14,4.85-10.78,4.57-16.88-.2-4.48-1.53-8.63-3.86-12.47-.67-1.11-1.51-2.05-2.52-2.81-1.38-1.04-2.8-2.04-4.29-2.91-2.92-1.71-6.1-2.25-9.44-1.79-3.42.46-6.58,1.67-9.48,3.52-1.79,1.14-3.07,2.67-3.56,4.85-.52,2.31-.7,4.61-.42,6.94.17,1.42.73,2.69,1.55,3.85.93,1.33,2.09,2.43,3.44,3.31.71.46,1.55.76,2.38.98,1.67.44,3.38.77,5.07,1.16,1.89.44,3.71,1.1,5.39,2.08.74.43,1.45.95,2.08,1.53,1.34,1.22,1.76,2.8,1.46,4.55-.32,1.94-1.31,3.47-2.96,4.56-1.66,1.09-3.5,1.67-5.48,1.64-5-.07-9.6-1.39-13.54-4.61-2.28-1.86-3.79-4.29-4.99-6.91-1.67-3.62-2.58-7.46-2.52-11.43.13-8.06,3.82-14.14,11.17-17.48,8.29-3.76,16.51-3.16,24.19,1.86,4.29,2.8,7.42,6.71,9.25,11.51,4.01,10.52,2.59,20.4-3.87,29.58-2.81,3.99-6.35,7.19-10.78,9.3-7.76,3.69-15.73,4.28-23.88,1.43-2.02-.7-3.96-1.56-5.79-2.69-.49-.3-1.03-.54-1.54-.8-.42.43-.05.67.08.9,1.16,1.95,2.14,3.98,2.98,6.1,3.59,9.05,2.4,21.02-4.32,29.34-5.75,7.12-13.28,11.19-22.49,11.88-5.73.43-11.17-.68-16.18-3.49-3.89-2.18-7.14-5.12-9.4-9.04-2.75-4.77-3.87-9.89-3.23-15.37.42-3.61,1.38-7.07,3.44-10.12,3.82-5.66,9.17-8.66,15.98-8.7,5.15-.03,10.01,1.29,14.45,4.03,3.43,2.11,5.8,5.07,7.18,8.81.93,2.51,1.54,5.1,1.54,7.81,0,2.05-.47,3.95-1.55,5.71-.88,1.42-2.11,2.38-3.69,2.9-2.52.83-4.77.07-6.31-2.11-1.29-1.82-2.12-3.85-2.67-5.99-.46-1.81-.88-3.63-1.25-5.46-.29-1.42-.89-2.64-1.89-3.68-.65-.67-1.29-1.35-1.99-1.96-1.18-1.03-2.57-1.67-4.12-1.89-2.89-.41-5.72-.16-8.47.82-.49.17-.98.43-1.37.77-.65.57-1.33,1.15-1.8,1.86-2.5,3.73-3.99,7.81-4.01,12.36,0,1.48.21,2.93.71,4.32,1.21,3.39,3.15,6.32,5.81,8.73,1.6,1.45,3.58,2.3,5.6,3.01,9.07,3.2,17.6,1.99,25.53-3.34,6.4-4.3,10.57-10.22,12.37-17.77.61-2.58.7-5.12.22-7.73-1.03-5.55-3.06-10.75-5.57-15.77-.29-.59-.61-1.17-.92-1.75.09-.08.19-.16.28-.24ZM32.65,66.91c.85.7,1.38,1.1,1.87,1.54,2.29,2.07,3.72,4.67,4.55,7.61.52,1.86.9,3.75,1.36,5.62.17.71.34,1.43.63,2.1,1.21,2.78,3.77,3.8,6.58,2.64,1.54-.63,2.7-1.68,3.4-3.2,1.02-2.21,1.36-4.49.28-6.74-.87-1.81-2.18-3.33-3.84-4.52-3.98-2.86-8.44-4.47-13.29-5.03-.38-.04-.76-.01-1.55-.02ZM69.92,30.19c-.09.48-.14.61-.13.73.02.33.05.66.09.99.58,4.21,1.93,8.13,4.29,11.71,1.24,1.88,2.75,3.43,4.67,4.55.67.39,1.46.69,2.22.81,1.97.31,3.87-.04,5.57-1.09,2.08-1.29,3.17-3.19,3.08-5.67-.06-1.49-.7-2.73-2.04-3.45-.87-.47-1.8-.86-2.75-1.11-1.92-.52-3.89-.89-5.82-1.41-3.15-.86-5.9-2.41-8.05-4.92-.29-.33-.62-.63-1.12-1.13Z"/>
        <path class="cls-3" d="M60.47,17.91c-.26.65-.39,1.08-.6,1.47-.9,1.73-1.5,3.55-1.83,5.46-1.15,6.62-.39,12.99,2.38,19.12,1.34,2.95,3.3,5.44,5.7,7.61,2.15,1.95,4.56,3.45,7.32,4.36.25.08.47.23.73.36-.15.55-.54.25-.79.21-5.81-.93-10.12-4.17-13.49-8.82-1.56-2.16-2.92-4.44-3.83-6.97-2.59-7.18-1.71-14.01,2.07-20.53.4-.68.94-1.29,1.46-1.89.14-.16.44-.19.9-.38Z"/>
        <path class="cls-8" d="M59.23,70.99c-.23-.39-.51-.77-.68-1.18-2.43-5.89-6.65-10.03-12.44-12.56-5.76-2.52-11.78-3.15-17.98-2.15-2.12.34-4.14.95-6.03,1.99-.33.18-.71.26-1.29.47.18-.44.21-.73.37-.87.61-.52,1.21-1.06,1.9-1.45,8.5-4.82,16.95-4.79,25.32.35,2.05,1.26,3.92,2.72,5.63,4.43,2.87,2.88,4.59,6.32,5.32,10.28.04.22-.11.47-.17.7h.05Z"/>
        <path class="cls-5" d="M25.51,90.52c-2.52-2.46-2.05-6.95.93-8.86,1.48-.95,3.65-.83,5.28.3,2.39,1.65,3.1,4.15,1.96,6.85-.03.06-.04.13-.07.19-1.64,3.63-5.25,4.3-8.11,1.52ZM26.52,88.81c1.48,1.43,3.62,1.88,5.34,1.11,1.08-.48,1.38-1.02,1.24-2.2-.24-2.11-2.08-4.09-4.23-4.55-1.09-.23-2.12-.08-3.09.47-.71.4-1.02,1.01-.92,1.83.16,1.31.7,2.42,1.64,3.34Z"/>
        <path class="cls-11" d="M84.64,23.28c3.53-3.58,8.35-2.69,10.04,1.26,1.06,2.48-.09,4.71-1.67,5.55-.58.31-1.16.65-1.77.88-3.76,1.41-6.94-1.45-7.32-4.56-.17-1.39.2-2.63.72-3.14ZM87.48,28.78c.75.42,1.45.97,2.25,1.23,2.03.66,2.93.14,3.36-2.08.1-.51.07-1.07-.02-1.58-.38-2.22-2.18-3.95-4.43-4.3-1.24-.2-1.82.13-2.34,1.32-.77,1.74-.29,3.76,1.18,5.41Z"/>
        <path class="cls-9" d="M82.33,81.49c3.53-3.58,8.35-2.69,10.04,1.26,1.06,2.48-.09,4.71-1.67,5.55-.58.31-1.16.65-1.77.88-3.76,1.41-6.94-1.45-7.32-4.56-.17-1.39.2-2.63.72-3.14ZM85.18,86.98c.75.42,1.45.97,2.25,1.23,2.03.66,2.93.14,3.36-2.08.1-.51.07-1.07-.02-1.58-.38-2.22-2.18-3.95-4.43-4.3-1.24-.2-1.82.13-2.34,1.32-.77,1.74-.29,3.76,1.18,5.41Z"/>
        <path class="cls-6" d="M93.55,92.9c3.53-3.58,8.35-2.69,10.04,1.26,1.06,2.48-.09,4.71-1.67,5.55-.58.31-1.16.65-1.77.88-3.76,1.41-6.94-1.45-7.32-4.56-.17-1.39.2-2.63.72-3.14ZM96.39,98.39c.75.42,1.45.97,2.25,1.23,2.03.66,2.93.14,3.36-2.08.1-.51.07-1.07-.02-1.58-.38-2.22-2.18-3.95-4.43-4.3-1.24-.2-1.82.13-2.34,1.32-.77,1.74-.29,3.76,1.18,5.41Z"/>
        <path class="cls-4" d="M75.39,68.38c1.11-.18,1.96-.07,2.82-.08,2.33-.03,4.66,0,6.98-.13,4.26-.25,8.2-1.57,11.81-3.85.6-.38,1.22-.73,1.82-1.09.36.39.05.57-.09.71-3.25,3.23-7.09,5.34-11.64,6.09-1.77.29-3.53.66-5.34.55-1.4-.08-2.77-.31-4.1-.78-.75-.27-1.5-.54-2.25-1.42Z"/>
        <path class="cls-7" d="M65.89,96.27c.71-1.2,1.28-2.17,1.86-3.14,1.84-3.08,2.84-6.42,3.23-9.97.29-2.65.27-5.31.19-7.97-.03-.85-.14-1.71.13-2.67.78.68,1.1,1.46,1.39,2.27.74,2.11.98,4.29.67,6.49-.25,1.77-.59,3.54-1.02,5.28-.91,3.73-3.05,6.74-5.68,9.45-.09.09-.21.15-.33.21-.06.03-.13.02-.43.06Z"/>
        <path class="cls-2" d="M59.17,71c.08.08.16.16.24.23-.08.03-.16.06-.24.08.02-.11.04-.22.06-.33,0,0-.06,0-.06,0Z"/>
      </g>
      <path class="cls-1" d="M109.39,0c-.12.62-.28,1.15-.33,1.68-.24,2.55-.54,5.09-.66,7.64-.19,4.28-.36,8.56-.36,12.83.02,22.91.09,45.81.14,68.72,0,4.45,0,8.89,0,13.34,0,.49-.05.98-.08,1.47-.67.26-1.28.16-1.88.16-16.96.01-33.91,0-50.87.02-5.34,0-10.68-.03-16.01.11-8.84.24-17.67.61-26.5.92-3.72.13-7.45.22-11.17.33-.55.02-1.11,0-1.67.21.54.03,1.07.06,1.61.08,7.61.25,15.23.49,22.84.76,5.39.19,10.78.46,16.17.58,4.72.1,9.45.05,14.18.06,17.46,0,34.92,0,52.37,0,.5,0,1,0,1.5,0,1.02,0,1.81-.52,2.03-2,.06-.38.02-.78.02-1.17.04-22.29.1-44.59.11-66.88,0-8.34-.06-16.68-.2-25.02-.08-4.56-.51-9.1-1.06-13.63,0-.04-.05-.07-.17-.22Z"/>
    </g>
  </g>
</svg>